<svg xmlns="http://www.w3.org/2000/svg" width="16" height="16" fill="none"><g clip-path="url(#a)"><rect width="16" height="16" fill="#000" rx="4"/><g clip-path="url(#b)"><path fill="#fff" d="M7.988 6.15a2.076 2.076 0 1 0 0-4.151 2.076 2.076 0 0 0 0 4.151Zm0 3.698a2.076 2.076 0 1 0 0 4.153 2.076 2.076 0 0 0 0-4.153Zm3.936-3.913a2.076 2.076 0 1 0 0 4.152 2.076 2.076 0 0 0 0-4.152Zm-7.848 0a2.076 2.076 0 1 0 0 4.152 2.076 2.076 0 0 0 0-4.152Z"/></g></g><defs><clipPath id="a"><path fill="#fff" d="M0 0h16v16H0z"/></clipPath><clipPath id="b"><path fill="#fff" d="M2 2h12v12H2z"/></clipPath></defs></svg>